<svg width="62" height="36" viewBox="0 0 62 36" fill="none" xmlns="http://www.w3.org/2000/svg">
<path d="M24 10C24 8.11438 24 7.17157 24.5858 6.58579C25.1716 6 26.1144 6 28 6H54C55.8856 6 56.8284 6 57.4142 6.58579C58 7.17157 58 8.11438 58 10V19C58 20.8856 58 21.8284 57.4142 22.4142C56.8284 23 55.8856 23 54 23H28C26.1144 23 25.1716 23 24.5858 22.4142C24 21.8284 24 20.8856 24 19V10Z" stroke="white" stroke-width="2" stroke-linecap="round" stroke-linejoin="round"/>
<path d="M46 13V17" stroke="white" stroke-width="2" stroke-linecap="round" stroke-linejoin="round"/>
<path d="M40 13V16" stroke="white" stroke-width="2" stroke-linecap="round" stroke-linejoin="round"/>
<path d="M52 13V16" stroke="white" stroke-width="2" stroke-linecap="round" stroke-linejoin="round"/>
</svg>
