<svg width="63" height="63" viewBox="0 0 63 63" fill="none" xmlns="http://www.w3.org/2000/svg">
<g clip-path="url(#clip0_377_1548)">
<path d="M46.7278 23.242C46.7278 26.7391 45.9366 30.1909 44.4134 33.3388L38.9468 44.6366C36.2742 50.1599 34.9379 52.9216 33.0393 53.6625C31.8256 54.1361 30.4782 54.1361 29.2644 53.6625C27.3659 52.9216 26.0296 50.1599 23.357 44.6366L17.8903 33.3388C16.3671 30.1908 15.5759 26.7391 15.5759 23.242V23.242C15.5759 14.707 22.6169 7.78796 31.1519 7.78796V7.78796C39.6869 7.78796 46.7278 14.707 46.7278 23.242V23.242Z" stroke="white" stroke-width="2.19"/>
<path d="M36.3439 23.3639C36.3439 26.2314 34.0194 28.5559 31.1519 28.5559C28.2845 28.5559 25.96 26.2314 25.96 23.3639C25.96 20.4965 28.2845 18.1719 31.1519 18.1719C34.0194 18.1719 36.3439 20.4965 36.3439 23.3639Z" fill="white"/>
</g>
<defs>
<clipPath id="clip0_377_1548">
<rect width="62.3038" height="62.3038" fill="white"/>
</clipPath>
</defs>
</svg>
