<svg width="16" height="21" viewBox="0 0 16 21" fill="none" xmlns="http://www.w3.org/2000/svg">
<path d="M7.61804 20.2969C7.9696 20.8438 8.78992 20.8438 9.14148 20.2969C14.8446 12.0938 15.8993 11.2344 15.8993 8.1875C15.8993 4.04688 12.5399 0.6875 8.39929 0.6875C4.2196 0.6875 0.899292 4.04688 0.899292 8.1875C0.899292 11.2344 1.91492 12.0938 7.61804 20.2969ZM8.39929 11.3125C6.64148 11.3125 5.27429 9.94531 5.27429 8.1875C5.27429 6.46875 6.64148 5.0625 8.39929 5.0625C10.118 5.0625 11.5243 6.46875 11.5243 8.1875C11.5243 9.94531 10.118 11.3125 8.39929 11.3125Z" fill="#757575"/>
</svg>
