<svg width="21" height="16" viewBox="0 0 21 16" fill="none" xmlns="http://www.w3.org/2000/svg">
<path d="M20.5087 5.69238C19.6102 6.39551 18.4774 7.25488 14.493 10.1455C13.7118 10.7314 12.2665 12.0205 10.8993 12.0205C9.49304 12.0205 8.08679 10.7314 7.26648 10.1455C3.2821 7.25488 2.14929 6.39551 1.25085 5.69238C1.0946 5.5752 0.899292 5.69238 0.899292 5.8877V13.8564C0.899292 14.9111 1.7196 15.7314 2.77429 15.7314H19.0243C20.0399 15.7314 20.8993 14.9111 20.8993 13.8564V5.8877C20.8993 5.69238 20.6649 5.5752 20.5087 5.69238ZM10.8993 10.7314C11.7977 10.7705 13.0868 9.59863 13.7509 9.12988C18.9462 5.37988 19.3368 5.02832 20.5087 4.09082C20.743 3.93457 20.8993 3.66113 20.8993 3.34863V2.60645C20.8993 1.59082 20.0399 0.731445 19.0243 0.731445H2.77429C1.7196 0.731445 0.899292 1.59082 0.899292 2.60645V3.34863C0.899292 3.66113 1.01648 3.93457 1.25085 4.09082C2.42273 5.02832 2.81335 5.37988 8.00867 9.12988C8.67273 9.59863 9.96179 10.7705 10.8993 10.7314Z" fill="#757575"/>
</svg>
